<svg version="1.1" xmlns="http://www.w3.org/2000/svg" xmlns:xlink="http://www.w3.org/1999/xlink" x="0px" y="0px" viewBox="0 0 64 64" xml:space="preserve"><g class="nc-icon-wrapper" stroke-linecap="square" stroke-linejoin="miter" fill="#111111" stroke="#111111"><line data-cap="butt" fill="none" stroke="#111111" stroke-miterlimit="10" x1="39.73" y1="8.265" x2="55.67" y2="24.204" stroke-linecap="butt"/> <path data-cap="butt" fill="none" stroke="#111111" stroke-miterlimit="10" d="M33.48,11.733 c-7.829-3.372-17.259-1.861-23.654,4.534c-1.311,1.311-2.393,2.761-3.294,4.288l9.188,9.188" stroke-linecap="butt"/> <path data-cap="butt" fill="none" stroke="#111111" stroke-miterlimit="10" d="M52.214,30.4 c3.444,7.854,1.948,17.344-4.482,23.774c-1.311,1.311-2.761,2.393-4.288,3.294l-9.226-9.226" stroke-linecap="butt"/> <path fill="none" stroke="#111111" stroke-miterlimit="10" d="M26.884,52.278 L11.722,37.116c0,0,12.951-32.22,49.278-34.116C58.947,39.169,26.884,52.278,26.884,52.278z"/> <ellipse data-color="color-2" transform="matrix(0.7071 -0.7071 0.7071 0.7071 -8.894 33.8063)" fill="none" stroke-miterlimit="10" cx="36.361" cy="27.639" rx="5.361" ry="5.361"/> <path data-color="color-2" fill="none" stroke-miterlimit="10" d="M3,55 c0-3.314,2.686-6,6-6s6,2.686,6,6s-2.686,6-6,6c-1.094,0-6,0-6,0S3,57.22,3,55z"/></g></svg>